<?xml version="1.0" encoding="UTF-8"?><svg id="ball_path" xmlns="http://www.w3.org/2000/svg" width="1332.09" height="742.76" viewBox="0 0 1332.09 742.76"><defs><style>.cls-1{fill:none;stroke:#000;stroke-miterlimit:10;stroke-width:2px;}</style></defs><path class="cls-1" d="M73.42,309.44c-16.25-45.18-80.91,9.05-71.48,48.86,1.78,8.29,7.12,15.89,13.99,20.15,74.71,27.78,192.24-55.43,259.94-128.56,18.52-21.56,39.21-47.67,50.83-72.45,2.18-5.21,2.72-8.95,1.66-10.95-1.01-1.96-3.48-2.33-6.72-1.61-65.45,22.32-202.19,214.31-98.07,243.12,19.36,5.09,41.41,5.94,59.9-1.54,6.45-2.24,19.82-9.78,12.67-7.7-86.35,36.35-188.04,111.81-214.67,211.51-9,32.51-15.84,72.55,4.17,103.75,4.46,6.55,9.62,11.17,14.72,14.36,104.06,65.81,322.63-123.82,423.72-290.7,14.93-24,29.75-50.65,43.48-77.3,34.17-64.86,79.44-183.16,58.53-165.71-46.41,35.64-315.34,594.18-129.7,533.02,31.85-12.37,55.02-44.45,77.21-70.55,26.83-33.05,56.56-63.79,82.94-97.06,10.17-12.58,17.87-24.85,28.8-36.18,16.17-16.03,46.89-47.14,76.24-46.49,12.76.35,28.43,6.17,36.71,15.63,0,.49-.58.35-1.05.3-2.73-.45-10.8-4.29-19.79-6.7-75.73-17.74-141.04,107.24-113.21,170.3,25.68,60.78,107.2,33.74,154.1,14.63,179.12-63.77,297.36-307.63,306.87-431.9.55-5.39.08-13.3-5.53-8.54-67.66,81.68-198.01,385.19-203.11,443.87,1.91,11.33,24.57-26.22,40.21-43.73,3.11-3.86,6.32-7.74,9.5-11.56,24.65-29.25,49.37-55.9,79.31-80,50-39.17,41.42.21,41.39,38.95-.33,34.07,10.77,131.84,61.31,120.72,99.22-17.64,195.1-203.9,181.52-328.35C1275.32,19.29,865.97-49.69,632.37,31.93c-54.05,18.73-113.74,40.27-152.65,81.46-10.31,10.77-20.05,24.83-26.91,39.42-129.39,274.38,369.57,269.54,502.99,164.3"/></svg>